<svg width="14" height="14" viewBox="0 0 14 14" fill="none" xmlns="http://www.w3.org/2000/svg">
<path d="M13.3002 0.710017C13.2077 0.617302 13.0978 0.543744 12.9768 0.493555C12.8559 0.443366 12.7262 0.417531 12.5952 0.417531C12.4642 0.417531 12.3346 0.443366 12.2136 0.493555C12.0926 0.543744 11.9827 0.617302 11.8902 0.710017L7.00022 5.59002L2.11022 0.700017C2.01771 0.607301 1.90782 0.533744 1.78685 0.483555C1.66587 0.433366 1.53619 0.407532 1.40522 0.407532C1.27424 0.407532 1.14456 0.433366 1.02358 0.483555C0.902609 0.533744 0.792722 0.607301 0.700215 0.700017C0.310215 1.09002 0.310215 1.72002 0.700215 2.11002L5.59022 7.00002L0.700215 11.89C0.310215 12.28 0.310215 12.91 0.700215 13.3C1.09021 13.69 1.72022 13.69 2.11022 13.3L7.00022 8.41002L11.8902 13.3C12.2802 13.69 12.9102 13.69 13.3002 13.3C13.6902 12.91 13.6902 12.28 13.3002 11.89L8.41021 7.00002L13.3002 2.11002C13.6802 1.73002 13.6802 1.09002 13.3002 0.710017Z" fill="#1e1d1d"/>
</svg>
