<svg width="23" height="22" viewBox="0 0 23 22" fill="none" xmlns="http://www.w3.org/2000/svg">
<path d="M4.79167 2.75H18.2083C18.7167 2.75 19.2042 2.94315 19.5636 3.28697C19.9231 3.63079 20.125 4.0971 20.125 4.58333V17.4167C20.125 17.9029 19.9231 18.3692 19.5636 18.713C19.2042 19.0568 18.7167 19.25 18.2083 19.25H4.79167C4.28334 19.25 3.79582 19.0568 3.43638 18.713C3.07693 18.3692 2.875 17.9029 2.875 17.4167V4.58333C2.875 4.0971 3.07693 3.63079 3.43638 3.28697C3.79582 2.94315 4.28334 2.75 4.79167 2.75ZM17.25 4.58333H14.8542C13.9646 4.58333 13.1114 4.92135 12.4824 5.52303C11.8534 6.12471 11.5 6.94076 11.5 7.79167V10.0833H9.58333V12.8333H11.5V19.25H14.375V12.8333H17.25V10.0833H14.375V8.25C14.375 8.00688 14.476 7.77373 14.6557 7.60182C14.8354 7.42991 15.0792 7.33333 15.3333 7.33333H17.25V4.58333Z" fill="white"/>
</svg>
