<svg width="18" height="17" viewBox="0 0 18 17" fill="none" xmlns="http://www.w3.org/2000/svg">
<path d="M4.965 7.64292C6.045 9.6475 7.785 11.2838 9.9075 12.3108L11.5575 10.7525C11.76 10.5613 12.06 10.4975 12.3225 10.5825C13.1625 10.8446 14.07 10.9863 15 10.9863C15.4125 10.9863 15.75 11.305 15.75 11.6946V14.1667C15.75 14.5563 15.4125 14.875 15 14.875C7.9575 14.875 2.25 9.48459 2.25 2.83333C2.25 2.44375 2.5875 2.125 3 2.125H5.625C6.0375 2.125 6.375 2.44375 6.375 2.83333C6.375 3.71875 6.525 4.56875 6.8025 5.36208C6.885 5.61 6.825 5.88625 6.615 6.08458L4.965 7.64292Z" fill="white"/>
</svg>
