<svg width="149" height="20" viewBox="0 0 149 20" fill="none" xmlns="http://www.w3.org/2000/svg">
<path d="M12.2 0.279999H15.08L12.98 15H10.1L11.38 6.02L7.62 15H4.88L5.28 5.98L1.94 15H0.34L5.42 1.26C4.39333 1.60667 3.60667 2.16667 3.06 2.94C2.51333 3.71333 2.24 4.65333 2.24 5.76C2.24 6.02667 2.25333 6.26 2.28 6.46C2.32 6.64667 2.38 6.82 2.46 6.98C2.48667 7.03333 2.5 7.07333 2.5 7.1C2.51333 7.11333 2.52 7.12667 2.52 7.14C1.8 7.14 1.26 6.99333 0.9 6.7C0.553333 6.39333 0.38 5.93333 0.38 5.32C0.38 4.68 0.573333 4.03333 0.96 3.38C1.36 2.71333 1.90667 2.10667 2.6 1.56C3.22667 1.06667 3.9 0.686666 4.62 0.419999C5.34 0.139999 6.04667 -1.19209e-06 6.74 -1.19209e-06C6.99333 -1.19209e-06 7.24667 0.0266655 7.5 0.079999C7.76667 0.119999 8.02 0.186666 8.26 0.279999L7.8 10.82L12.2 0.279999ZM21.2422 5.92V6.06L21.4622 5H24.3422L22.9022 11.8C22.8755 11.92 22.8555 12.0333 22.8422 12.14C22.8289 12.2333 22.8222 12.3333 22.8222 12.44C22.8222 12.7333 22.8889 12.9533 23.0222 13.1C23.1555 13.2333 23.3622 13.3 23.6422 13.3C23.9889 13.3 24.3022 13.14 24.5822 12.82C24.8622 12.4867 25.0889 12.02 25.2622 11.42H26.1022C25.6755 12.6467 25.1222 13.5733 24.4422 14.2C23.7622 14.8133 22.9755 15.12 22.0822 15.12C21.5089 15.12 21.0489 14.96 20.7022 14.64C20.3689 14.32 20.1755 13.8667 20.1222 13.28C19.7089 13.8933 19.2489 14.3533 18.7422 14.66C18.2489 14.9667 17.7155 15.12 17.1422 15.12C16.3155 15.12 15.6622 14.84 15.1822 14.28C14.7155 13.72 14.4822 12.9267 14.4822 11.9C14.4822 11.1533 14.5955 10.3733 14.8222 9.56C15.0489 8.74667 15.3622 8.00667 15.7622 7.34C16.2555 6.55333 16.8289 5.95333 17.4822 5.54C18.1355 5.11333 18.8489 4.9 19.6222 4.9C20.1422 4.9 20.5422 4.99333 20.8222 5.18C21.1022 5.35333 21.2422 5.6 21.2422 5.92ZM21.0622 6.9C21.0622 6.7 20.9889 6.52667 20.8422 6.38C20.6955 6.22 20.4955 6.14 20.2422 6.14C19.5089 6.14 18.8555 6.75333 18.2822 7.98C17.7222 9.20667 17.4422 10.42 17.4422 11.62C17.4422 12.14 17.5155 12.5333 17.6622 12.8C17.8089 13.0533 18.0689 13.18 18.4422 13.18C18.7889 13.18 19.1222 13.0133 19.4422 12.68C19.7755 12.3467 19.9955 11.9267 20.1022 11.42L21.0622 6.9ZM31.7695 5.92V6.04L31.9895 5H34.8695L32.8895 14.28C33.5562 14.04 34.0762 13.7067 34.4495 13.28C34.8362 12.84 35.1562 12.22 35.4095 11.42H36.2495C35.9429 12.4333 35.5029 13.2467 34.9295 13.86C34.3695 14.4733 33.6295 14.9067 32.7095 15.16L32.4095 16.6C32.1695 17.72 31.7495 18.5667 31.1495 19.14C30.5495 19.7133 29.7695 20 28.8095 20C28.1295 20 27.5829 19.8267 27.1695 19.48C26.7695 19.1333 26.5695 18.66 26.5695 18.06C26.5695 17.4067 26.8362 16.8267 27.3695 16.32C27.9162 15.8267 28.7362 15.4133 29.8295 15.08L30.0695 14.02C29.7229 14.38 29.3495 14.6533 28.9495 14.84C28.5495 15.0267 28.1229 15.12 27.6695 15.12C26.8429 15.12 26.1895 14.84 25.7095 14.28C25.2429 13.72 25.0095 12.9267 25.0095 11.9C25.0095 11.1533 25.1229 10.3733 25.3495 9.56C25.5762 8.74667 25.8895 8.00667 26.2895 7.34C26.7829 6.55333 27.3562 5.95333 28.0095 5.54C28.6629 5.11333 29.3762 4.9 30.1495 4.9C30.6695 4.9 31.0695 4.99333 31.3495 5.18C31.6295 5.35333 31.7695 5.6 31.7695 5.92ZM31.5895 6.88C31.5762 6.66667 31.4962 6.49333 31.3495 6.36C31.2029 6.21333 31.0095 6.14 30.7695 6.14C30.0362 6.14 29.3829 6.75333 28.8095 7.98C28.2495 9.20667 27.9695 10.42 27.9695 11.62C27.9695 12.14 28.0429 12.5333 28.1895 12.8C28.3362 13.0533 28.5962 13.18 28.9695 13.18C29.2895 13.18 29.6029 13.0333 29.9095 12.74C30.2295 12.4467 30.4495 12.0733 30.5695 11.62L31.5895 6.88ZM29.6295 16.08C28.9629 16.3333 28.4695 16.5933 28.1495 16.86C27.8295 17.14 27.6695 17.4467 27.6695 17.78C27.6695 17.9533 27.7362 18.1067 27.8695 18.24C28.0029 18.3733 28.1629 18.44 28.3495 18.44C28.5762 18.44 28.7962 18.28 29.0095 17.96C29.2229 17.64 29.3895 17.2067 29.5095 16.66L29.6295 16.08ZM40.3463 2.34C40.3463 2.78 40.1863 3.15333 39.8663 3.46C39.5596 3.76667 39.1863 3.92 38.7463 3.92C38.3063 3.92 37.9329 3.76667 37.6263 3.46C37.3196 3.15333 37.1663 2.78 37.1663 2.34C37.1663 1.9 37.3196 1.52667 37.6263 1.22C37.9329 0.899999 38.3063 0.739999 38.7463 0.739999C39.1863 0.739999 39.5596 0.899999 39.8663 1.22C40.1863 1.52667 40.3463 1.9 40.3463 2.34ZM35.2462 12.72C35.2462 12.5467 35.2596 12.3533 35.2862 12.14C35.3129 11.9133 35.3529 11.6733 35.4062 11.42L36.7663 5H39.6463L38.2063 11.8C38.1796 11.92 38.1596 12.0333 38.1463 12.14C38.1329 12.2333 38.1263 12.3333 38.1263 12.44C38.1263 12.7067 38.1863 12.9 38.3063 13.02C38.4396 13.1267 38.6529 13.18 38.9463 13.18C39.3196 13.18 39.6729 13.02 40.0063 12.7C40.3396 12.3667 40.5863 11.94 40.7463 11.42H41.5863C41.1596 12.6333 40.5863 13.5533 39.8663 14.18C39.1463 14.8067 38.3196 15.12 37.3863 15.12C36.7196 15.12 36.1929 14.9133 35.8063 14.5C35.4329 14.0733 35.2462 13.48 35.2462 12.72ZM47.5509 6.66C47.5509 7.11333 47.4509 7.47333 47.2509 7.74C47.0643 7.99333 46.8109 8.12 46.4909 8.12C46.3843 8.12 46.2709 8.1 46.1509 8.06C46.0309 8.02 45.9109 7.96 45.7909 7.88C45.8709 7.66667 45.9309 7.46 45.9709 7.26C46.0109 7.06 46.0309 6.87333 46.0309 6.7C46.0309 6.43333 45.9843 6.23333 45.8909 6.1C45.7976 5.95333 45.6576 5.88 45.4709 5.88C44.8843 5.88 44.3109 6.56 43.7509 7.92C43.1909 9.26667 42.9109 10.5467 42.9109 11.76C42.9109 12.3733 43.0109 12.8067 43.2109 13.06C43.4243 13.3133 43.8043 13.44 44.3509 13.44C44.9776 13.44 45.5509 13.3 46.0709 13.02C46.6043 12.7267 47.2109 12.1933 47.8909 11.42H48.5709C47.7976 12.6733 46.9576 13.6067 46.0509 14.22C45.1443 14.82 44.1509 15.12 43.0709 15.12C42.0443 15.12 41.2643 14.8533 40.7309 14.32C40.2109 13.7867 39.9509 12.9933 39.9509 11.94C39.9509 11.18 40.0643 10.3733 40.2909 9.52C40.5309 8.66667 40.8576 7.90667 41.2709 7.24C41.7643 6.44 42.3509 5.84 43.0309 5.44C43.7243 5.02667 44.4909 4.82 45.3309 4.82C46.0643 4.82 46.6176 4.98 46.9909 5.3C47.3643 5.60667 47.5509 6.06 47.5509 6.66ZM51.9867 13.5C52.2801 13.5267 52.5001 13.5467 52.6467 13.56C52.8067 13.5733 52.9467 13.58 53.0667 13.58C53.3601 13.58 53.5801 13.5467 53.7267 13.48C53.8867 13.4133 53.9801 13.3133 54.0067 13.18C53.8867 13.1667 53.7934 13.1267 53.7267 13.06C53.6601 12.98 53.6267 12.88 53.6267 12.76C53.6267 12.5333 53.7334 12.3333 53.9467 12.16C54.1601 11.9867 54.4267 11.9 54.7467 11.9C55.0267 11.9 55.2401 11.9867 55.3867 12.16C55.5467 12.3333 55.6267 12.5667 55.6267 12.86C55.6267 13.4067 55.3867 13.9 54.9067 14.34C54.4401 14.78 53.8667 15 53.1867 15H47.8867L52.9867 6.08H51.8667C51.4534 6.08 51.1667 6.10667 51.0067 6.16C50.8467 6.21333 50.7667 6.29333 50.7667 6.4C50.7667 6.4 50.8001 6.42667 50.8667 6.48C50.9467 6.53333 50.9867 6.65333 50.9867 6.84C50.9867 7.16 50.8801 7.42 50.6667 7.62C50.4667 7.80667 50.2134 7.9 49.9067 7.9C49.6401 7.9 49.4201 7.82 49.2467 7.66C49.0734 7.5 48.9867 7.28667 48.9867 7.02C48.9867 6.52667 49.2134 6.06667 49.6667 5.64C50.1334 5.21333 50.6801 5 51.3067 5H56.4467L51.5467 13.46C51.5867 13.46 51.6334 13.4667 51.6867 13.48C51.7534 13.48 51.8534 13.4867 51.9867 13.5ZM61.3014 12.86C61.3014 12.62 61.3281 12.32 61.3814 11.96C61.4481 11.6 61.5747 11.0267 61.7614 10.24C61.9481 9.48 62.0681 8.93333 62.1214 8.6C62.1747 8.26667 62.2014 7.98667 62.2014 7.76C62.2014 7.42667 62.1414 7.17333 62.0214 7C61.9014 6.82667 61.7214 6.74 61.4814 6.74C61.1614 6.74 60.8614 6.90667 60.5814 7.24C60.3147 7.56 60.0947 8.00667 59.9214 8.58L58.5614 15H55.6814L57.8014 5H60.6814L60.4614 6.04C60.7947 5.66667 61.1547 5.38667 61.5414 5.2C61.9281 5.01333 62.3481 4.92 62.8014 4.92C63.5081 4.92 64.0547 5.11333 64.4414 5.5C64.8281 5.88667 65.0214 6.44667 65.0214 7.18C65.0214 7.48667 64.9814 7.85333 64.9014 8.28C64.8347 8.69333 64.6947 9.33333 64.4814 10.2C64.3081 10.88 64.1947 11.36 64.1414 11.64C64.0881 11.92 64.0614 12.1533 64.0614 12.34C64.0614 12.62 64.1281 12.8333 64.2614 12.98C64.3947 13.1133 64.5947 13.18 64.8614 13.18C65.1947 13.18 65.4814 13.0667 65.7214 12.84C65.9614 12.6133 66.2347 12.14 66.5414 11.42H67.3814C66.9547 12.66 66.4347 13.5867 65.8214 14.2C65.2214 14.8133 64.5014 15.12 63.6614 15.12C62.9147 15.12 62.3347 14.92 61.9214 14.52C61.5081 14.1067 61.3014 13.5533 61.3014 12.86ZM73.2344 5.92V6.06L73.4544 5H76.3344L74.8944 11.8C74.8677 11.92 74.8477 12.0333 74.8344 12.14C74.821 12.2333 74.8144 12.3333 74.8144 12.44C74.8144 12.7333 74.881 12.9533 75.0144 13.1C75.1477 13.2333 75.3544 13.3 75.6344 13.3C75.981 13.3 76.2944 13.14 76.5744 12.82C76.8544 12.4867 77.081 12.02 77.2544 11.42H78.0944C77.6677 12.6467 77.1144 13.5733 76.4344 14.2C75.7544 14.8133 74.9677 15.12 74.0744 15.12C73.501 15.12 73.041 14.96 72.6944 14.64C72.361 14.32 72.1677 13.8667 72.1144 13.28C71.701 13.8933 71.241 14.3533 70.7344 14.66C70.241 14.9667 69.7077 15.12 69.1344 15.12C68.3077 15.12 67.6544 14.84 67.1744 14.28C66.7077 13.72 66.4744 12.9267 66.4744 11.9C66.4744 11.1533 66.5877 10.3733 66.8144 9.56C67.041 8.74667 67.3544 8.00667 67.7544 7.34C68.2477 6.55333 68.821 5.95333 69.4744 5.54C70.1277 5.11333 70.841 4.9 71.6144 4.9C72.1344 4.9 72.5344 4.99333 72.8144 5.18C73.0944 5.35333 73.2344 5.6 73.2344 5.92ZM73.0544 6.9C73.0544 6.7 72.981 6.52667 72.8344 6.38C72.6877 6.22 72.4877 6.14 72.2344 6.14C71.501 6.14 70.8477 6.75333 70.2744 7.98C69.7144 9.20667 69.4344 10.42 69.4344 11.62C69.4344 12.14 69.5077 12.5333 69.6544 12.8C69.801 13.0533 70.061 13.18 70.4344 13.18C70.781 13.18 71.1144 13.0133 71.4344 12.68C71.7677 12.3467 71.9877 11.9267 72.0944 11.42L73.0544 6.9Z" fill="black"/>
<path d="M84.2577 1.4C84.9377 0.959999 85.6643 0.619999 86.4377 0.38C87.2243 0.126666 87.991 -1.19209e-06 88.7377 -1.19209e-06C88.831 -1.19209e-06 88.931 0.00666579 89.0377 0.0199997C89.1577 0.0199997 89.3243 0.0266663 89.5377 0.0399995L88.2377 6.16C88.7977 5.38667 89.691 4.18 90.9177 2.54C92.1577 0.899999 92.7777 0.0866656 92.7777 0.0999987H94.8777L89.3177 6.5C89.371 6.5 89.4177 6.5 89.4577 6.5C89.511 6.5 89.591 6.49333 89.6977 6.48H90.0177C90.8577 6.48 91.4777 6.65333 91.8777 7C92.291 7.34667 92.4977 7.88667 92.4977 8.62C92.4977 8.92667 92.4643 9.28 92.3977 9.68C92.331 10.0667 92.1843 10.66 91.9577 11.46C91.771 12.14 91.651 12.6267 91.5977 12.92C91.5443 13.2133 91.5177 13.4667 91.5177 13.68C91.5177 13.9867 91.5843 14.26 91.7177 14.5C91.8643 14.74 92.0577 14.9067 92.2977 15C91.911 15.1067 91.5443 15.1867 91.1977 15.24C90.8643 15.3067 90.571 15.34 90.3177 15.34C89.7977 15.34 89.4043 15.2267 89.1377 15C88.8843 14.7867 88.7577 14.4533 88.7577 14C88.7577 13.7733 88.791 13.5 88.8577 13.18C88.9243 12.8467 89.0577 12.3 89.2577 11.54C89.4843 10.7133 89.631 10.1133 89.6977 9.74C89.7777 9.35333 89.8177 9.02 89.8177 8.74C89.8177 8.28667 89.7177 7.94667 89.5177 7.72C89.3177 7.49333 89.0177 7.38 88.6177 7.38C88.551 7.38 88.471 7.38667 88.3777 7.4C88.2977 7.41333 88.1577 7.43333 87.9577 7.46L86.3577 15H83.4777L86.3777 1.4C85.471 1.77333 84.7777 2.34 84.2977 3.1C83.8177 3.84667 83.5777 4.74 83.5777 5.78C83.5777 6.03333 83.591 6.25333 83.6177 6.44C83.6577 6.62667 83.7177 6.80667 83.7977 6.98C83.8243 7.03333 83.8377 7.07333 83.8377 7.1C83.851 7.11333 83.8577 7.12667 83.8577 7.14C83.111 7.14 82.5643 6.98667 82.2177 6.68C81.8843 6.36 81.7177 5.86667 81.7177 5.2C81.7177 4.53333 81.9377 3.86667 82.3777 3.2C82.831 2.53333 83.4577 1.93333 84.2577 1.4ZM96.9494 13.18C97.296 13.18 97.6027 13.0333 97.8694 12.74C98.1494 12.4333 98.376 11.9933 98.5494 11.42L99.9094 5H102.789L101.349 11.8C101.323 11.92 101.303 12.0333 101.289 12.14C101.276 12.2333 101.269 12.3333 101.269 12.44C101.269 12.7067 101.329 12.9 101.449 13.02C101.583 13.1267 101.796 13.18 102.089 13.18C102.436 13.18 102.749 13.0267 103.029 12.72C103.309 12.4133 103.536 11.98 103.709 11.42H104.549C104.123 12.6467 103.569 13.5733 102.889 14.2C102.209 14.8133 101.423 15.12 100.529 15.12C99.956 15.12 99.496 14.96 99.1494 14.64C98.8027 14.3067 98.6027 13.8333 98.5494 13.22C98.1627 13.86 97.7227 14.34 97.2294 14.66C96.7494 14.9667 96.2027 15.12 95.5894 15.12C94.9227 15.12 94.396 14.9133 94.0094 14.5C93.636 14.0733 93.4494 13.48 93.4494 12.72C93.4494 12.5467 93.4627 12.3533 93.4894 12.14C93.516 11.9133 93.556 11.6733 93.6094 11.42L94.9694 5H97.8494L96.4094 11.8C96.3827 11.9067 96.3627 12.0067 96.3494 12.1C96.3494 12.18 96.3494 12.2667 96.3494 12.36C96.3494 12.6267 96.396 12.8333 96.4894 12.98C96.596 13.1133 96.7494 13.18 96.9494 13.18ZM111.047 6.66C111.047 7.11333 110.947 7.47333 110.747 7.74C110.56 7.99333 110.307 8.12 109.987 8.12C109.88 8.12 109.767 8.1 109.647 8.06C109.527 8.02 109.407 7.96 109.287 7.88C109.367 7.66667 109.427 7.46 109.467 7.26C109.507 7.06 109.527 6.87333 109.527 6.7C109.527 6.43333 109.48 6.23333 109.387 6.1C109.294 5.95333 109.154 5.88 108.967 5.88C108.38 5.88 107.807 6.56 107.247 7.92C106.687 9.26667 106.407 10.5467 106.407 11.76C106.407 12.3733 106.507 12.8067 106.707 13.06C106.92 13.3133 107.3 13.44 107.847 13.44C108.474 13.44 109.047 13.3 109.567 13.02C110.1 12.7267 110.707 12.1933 111.387 11.42H112.067C111.294 12.6733 110.454 13.6067 109.547 14.22C108.64 14.82 107.647 15.12 106.567 15.12C105.54 15.12 104.76 14.8533 104.227 14.32C103.707 13.7867 103.447 12.9933 103.447 11.94C103.447 11.18 103.56 10.3733 103.787 9.52C104.027 8.66667 104.354 7.90667 104.767 7.24C105.26 6.44 105.847 5.84 106.527 5.44C107.22 5.02667 107.987 4.82 108.827 4.82C109.56 4.82 110.114 4.98 110.487 5.3C110.86 5.60667 111.047 6.06 111.047 6.66ZM116.399 12.86C116.399 12.62 116.426 12.32 116.479 11.96C116.546 11.6 116.672 11.0267 116.859 10.24C117.046 9.48 117.166 8.93333 117.219 8.6C117.272 8.26667 117.299 7.98667 117.299 7.76C117.299 7.42667 117.232 7.17333 117.099 7C116.979 6.82667 116.799 6.74 116.559 6.74C116.239 6.74 115.926 6.93333 115.619 7.32C115.326 7.69333 115.132 8.08667 115.039 8.5L113.659 15H110.779L113.679 1.4L116.639 0.999999L115.559 6.04C115.892 5.66667 116.252 5.38667 116.639 5.2C117.026 5.01333 117.446 4.92 117.899 4.92C118.606 4.92 119.152 5.11333 119.539 5.5C119.926 5.88667 120.119 6.44667 120.119 7.18C120.119 7.48667 120.079 7.85333 119.999 8.28C119.932 8.69333 119.792 9.33333 119.579 10.2C119.406 10.88 119.292 11.36 119.239 11.64C119.186 11.92 119.159 12.1533 119.159 12.34C119.159 12.62 119.226 12.8333 119.359 12.98C119.492 13.1133 119.692 13.18 119.959 13.18C120.292 13.18 120.579 13.0667 120.819 12.84C121.059 12.6133 121.332 12.14 121.639 11.42H122.479C122.052 12.66 121.532 13.5867 120.919 14.2C120.319 14.8133 119.599 15.12 118.759 15.12C118.012 15.12 117.432 14.92 117.019 14.52C116.606 14.1067 116.399 13.5533 116.399 12.86ZM126.497 12.86C126.497 12.62 126.523 12.32 126.577 11.96C126.643 11.6 126.77 11.0267 126.957 10.24C127.143 9.48 127.263 8.93333 127.317 8.6C127.37 8.26667 127.397 7.98667 127.397 7.76C127.397 7.42667 127.337 7.17333 127.217 7C127.097 6.82667 126.917 6.74 126.677 6.74C126.357 6.74 126.057 6.90667 125.777 7.24C125.51 7.56 125.29 8.00667 125.117 8.58L123.757 15H120.877L122.997 5H125.877L125.657 6.04C125.99 5.66667 126.35 5.38667 126.737 5.2C127.123 5.01333 127.543 4.92 127.997 4.92C128.703 4.92 129.25 5.11333 129.637 5.5C130.023 5.88667 130.217 6.44667 130.217 7.18C130.217 7.48667 130.177 7.85333 130.097 8.28C130.03 8.69333 129.89 9.33333 129.677 10.2C129.503 10.88 129.39 11.36 129.337 11.64C129.283 11.92 129.257 12.1533 129.257 12.34C129.257 12.62 129.323 12.8333 129.457 12.98C129.59 13.1133 129.79 13.18 130.057 13.18C130.39 13.18 130.677 13.0667 130.917 12.84C131.157 12.6133 131.43 12.14 131.737 11.42H132.577C132.15 12.66 131.63 13.5867 131.017 14.2C130.417 14.8133 129.697 15.12 128.857 15.12C128.11 15.12 127.53 14.92 127.117 14.52C126.703 14.1067 126.497 13.5533 126.497 12.86ZM136.674 2.34C136.674 2.78 136.514 3.15333 136.194 3.46C135.888 3.76667 135.514 3.92 135.074 3.92C134.634 3.92 134.261 3.76667 133.954 3.46C133.648 3.15333 133.494 2.78 133.494 2.34C133.494 1.9 133.648 1.52667 133.954 1.22C134.261 0.899999 134.634 0.739999 135.074 0.739999C135.514 0.739999 135.888 0.899999 136.194 1.22C136.514 1.52667 136.674 1.9 136.674 2.34ZM131.574 12.72C131.574 12.5467 131.588 12.3533 131.614 12.14C131.641 11.9133 131.681 11.6733 131.734 11.42L133.094 5H135.974L134.534 11.8C134.508 11.92 134.488 12.0333 134.474 12.14C134.461 12.2333 134.454 12.3333 134.454 12.44C134.454 12.7067 134.514 12.9 134.634 13.02C134.768 13.1267 134.981 13.18 135.274 13.18C135.648 13.18 136.001 13.02 136.334 12.7C136.668 12.3667 136.914 11.94 137.074 11.42H137.914C137.488 12.6333 136.914 13.5533 136.194 14.18C135.474 14.8067 134.648 15.12 133.714 15.12C133.048 15.12 132.521 14.9133 132.134 14.5C131.761 14.0733 131.574 13.48 131.574 12.72ZM143.566 5.92V6.06L143.786 5H146.666L145.226 11.8C145.2 11.92 145.18 12.0333 145.166 12.14C145.153 12.2333 145.146 12.3333 145.146 12.44C145.146 12.7333 145.213 12.9533 145.346 13.1C145.48 13.2333 145.686 13.3 145.966 13.3C146.313 13.3 146.626 13.14 146.906 12.82C147.186 12.4867 147.413 12.02 147.586 11.42H148.426C148 12.6467 147.446 13.5733 146.766 14.2C146.086 14.8133 145.3 15.12 144.406 15.12C143.833 15.12 143.373 14.96 143.026 14.64C142.693 14.32 142.5 13.8667 142.446 13.28C142.033 13.8933 141.573 14.3533 141.066 14.66C140.573 14.9667 140.04 15.12 139.466 15.12C138.64 15.12 137.986 14.84 137.506 14.28C137.04 13.72 136.806 12.9267 136.806 11.9C136.806 11.1533 136.92 10.3733 137.146 9.56C137.373 8.74667 137.686 8.00667 138.086 7.34C138.58 6.55333 139.153 5.95333 139.806 5.54C140.46 5.11333 141.173 4.9 141.946 4.9C142.466 4.9 142.866 4.99333 143.146 5.18C143.426 5.35333 143.566 5.6 143.566 5.92ZM143.386 6.9C143.386 6.7 143.313 6.52667 143.166 6.38C143.02 6.22 142.82 6.14 142.566 6.14C141.833 6.14 141.18 6.75333 140.606 7.98C140.046 9.20667 139.766 10.42 139.766 11.62C139.766 12.14 139.84 12.5333 139.986 12.8C140.133 13.0533 140.393 13.18 140.766 13.18C141.113 13.18 141.446 13.0133 141.766 12.68C142.1 12.3467 142.32 11.9267 142.426 11.42L143.386 6.9Z" fill="#FF8D37"/>
</svg>
